<?xml version="1.0" encoding="utf-8"?>
<!-- Generator: Adobe Illustrator 26.1.0, SVG Export Plug-In . SVG Version: 6.00 Build 0)  -->
<svg version="1.1" id="Layer_1" xmlns="http://www.w3.org/2000/svg" xmlns:xlink="http://www.w3.org/1999/xlink" x="0px" y="0px"
	 viewBox="0 0 1190 842" style="enable-background:new 0 0 1190 842;" xml:space="preserve">
<g>
	<g>
		<path style="fill:#FFFFFF;" d="M240.4,433.4c0,14.8-6.5,24.4-19.4,28.9c-4.5,1.6-9.4,2.4-14.6,2.4c-10.9,0-21-3.3-30.4-9.9
			l9.7-18.3c6.8,6.2,13.5,9.3,20.1,9.3c2.9,0,5.4-0.7,7.5-2.1c2.4-1.6,3.6-3.7,3.6-6.6c0-2.6-1.3-4.7-4-6.5c-2-1.3-5.3-2.6-9.9-3.9
			c-5.6-1.7-9.2-2.8-10.6-3.4c-2.3-1-4.3-2.1-5.9-3.4c-4.7-3.8-7-9.6-7-17.4c0-8.1,2.4-14.8,7.2-20.1c5.6-6.3,13.1-9.4,22.5-9.4
			c9.4,0,18.7,2.4,27.7,7.1l-9.1,17.7c-5-3.9-10-5.8-15-5.8c-2.4,0-4.6,0.6-6.5,1.9c-2.2,1.4-3.3,3.3-3.3,5.6c0,2.3,1.4,4.3,4.3,6
			c1.3,0.8,5.1,2.1,11.5,4c8,2.4,13.8,5.7,17.2,10C239,422.9,240.4,427.6,240.4,433.4z"/>
		<path style="fill:#FFFFFF;" d="M507.2,375l-32.7,45.3v42l-22.7,6.8v-48.8L420.2,375h27.1l16.5,23.8l15.9-23.8H507.2z"/>
		<g>
			<polygon style="fill:#FFFFFF;" points="277.5,408.7 277.5,399.5 277.5,375 254.8,375 254.8,462.3 277.5,462.3 277.5,430.9 
				277.5,426 			"/>
			<polygon style="fill:#FFFFFF;" points="310.2,375 310.2,408.7 281.9,408.7 281.9,426 310.2,426 310.2,462.3 332.9,462.3 
				332.9,375 			"/>
		</g>
		<polyline style="fill:#FFFFFF;" points="404.4,447.1 410,462.3 434.2,462.3 401.4,375 376.6,375 343,462.3 367,462.3 373,447.1 
			373,447.1 379.3,429.8 379.3,429.8 388.8,402 404.4,447.1 		"/>
	</g>
	<g>
		<g>
			<path style="fill:#FFFFFF;" d="M622.5,393.9h-18.8v68.4l-22.7,6.9v-75.3h-18.5v-18.9h60V393.9z"/>
			<path style="fill:#FFFFFF;" d="M693,433.4c0,14.8-6.5,24.4-19.4,28.9c-4.5,1.6-9.4,2.4-14.6,2.4c-10.9,0-21-3.3-30.4-9.9
				l9.7-18.3c6.8,6.2,13.5,9.3,20.1,9.3c2.9,0,5.4-0.7,7.5-2.1c2.4-1.6,3.6-3.7,3.6-6.6c0-2.6-1.3-4.7-4-6.5c-2-1.3-5.3-2.6-9.9-3.9
				c-5.6-1.7-9.2-2.8-10.6-3.4c-2.3-1-4.3-2.1-5.9-3.4c-4.7-3.8-7-9.6-7-17.4c0-8.1,2.4-14.8,7.2-20.1c5.6-6.3,13.1-9.4,22.5-9.4
				c9.4,0,18.7,2.4,27.7,7.1l-9.1,17.7c-5-3.9-10-5.8-15-5.8c-2.4,0-4.6,0.6-6.5,1.9c-2.2,1.4-3.3,3.3-3.3,5.6c0,2.3,1.4,4.3,4.3,6
				c1.3,0.8,5.1,2.1,11.5,4c8,2.4,13.8,5.7,17.2,10C691.6,422.9,693,427.6,693,433.4z"/>
			<path style="fill:#FFFFFF;" d="M914.1,462.2h-22.7v-87.3h22.7V462.2z"/>
			<path style="fill:#FFFFFF;" d="M1014,462.2h-29.4l-29.5-37.9v37.9h-22.7v-87.3h22.7v36l27.7-36h27.9l-34.6,41.3L1014,462.2z"/>
		</g>
		<polyline style="fill:#FFFFFF;" points="760.4,447 766.1,462.2 790.3,462.2 757.4,374.9 732.7,374.9 699.1,462.2 723.1,462.2 
			729.1,447 729.1,447 735.4,429.8 735.4,429.8 744.9,401.9 		"/>
		<path style="fill:#FFFFFF;" d="M872.4,399.6c-3.7-7.4-8.9-13.3-15.8-17.8c-7-4.6-14.6-6.8-22.8-6.8h-33.5v87.3h22.7v-18.9v-8
			v-41.5h5.2c8.9,0,15.6,3,20.1,8.9c3.4,4.5,5.1,9.7,5.1,15.8s-1.7,11.3-5.1,15.8c-4.4,5.9-11.1,8.9-20.1,8.9h-0.7v18.9h6.4
			c4.7,0,9.3-0.8,13.8-2.4c8.5-3,15.5-8.3,21-16.1s8.2-16.1,8.2-25.2C876.9,412,875.4,405.7,872.4,399.6z"/>
	</g>
</g>
</svg>
